<svg width="768" height="442" xmlns="http://www.w3.org/2000/svg" xmlns:xlink="http://www.w3.org/1999/xlink" overflow="hidden"><defs><clipPath id="clip0"><rect x="109" y="155" width="768" height="442"/></clipPath></defs><g clip-path="url(#clip0)" transform="translate(-109 -155)"><rect x="113.5" y="156.5" width="337" height="88" stroke="#000000" stroke-miterlimit="8" fill="#0070C0"/><text fill="#FEFFFF" font-family="Microsoft YaHei,Microsoft YaHei_MSFontService,sans-serif" font-weight="700" font-size="37" transform="translate(131.714 214)">有序序列<tspan font-size="37" x="149.333" y="0">R[1..i</tspan><tspan font-size="37" x="245.167" y="0">-</tspan>1]</text><rect x="450.5" y="276.5" width="60" height="88" stroke="#000000" stroke-miterlimit="8" fill="#0070C0"/><text fill="#FEFFFF" font-family="Microsoft YaHei,Microsoft YaHei_MSFontService,sans-serif" font-weight="700" font-size="37" transform="translate(447.094 333)">R[i]</text><rect x="450.5" y="156.5" width="423" height="88" stroke="#000000" stroke-miterlimit="8" fill="#C00000"/><text fill="#FEFFFF" font-family="Microsoft YaHei,Microsoft YaHei_MSFontService,sans-serif" font-weight="700" font-size="37" transform="translate(563.437 215)">无序序列<tspan font-size="37" x="160.5" y="0">R[</tspan>i..n]</text><rect x="113.5" y="508.5" width="397" height="88" stroke="#000000" stroke-miterlimit="8" fill="#0070C0"/><text fill="#FEFFFF" font-family="Microsoft YaHei,Microsoft YaHei_MSFontService,sans-serif" font-weight="700" font-size="37" transform="translate(181.714 565)">有序序列R[1..i]</text><rect x="510.5" y="508.5" width="363" height="88" stroke="#000000" stroke-miterlimit="8" fill="#C00000"/><text fill="#FEFFFF" font-family="Microsoft YaHei,Microsoft YaHei_MSFontService,sans-serif" font-weight="700" font-size="37" transform="translate(530.021 565)">无序序列<tspan font-size="37" x="160.5" y="0">R[i+1..n]</tspan></text><path d="M449.547 322.667 278 322.667 278 259 284 259 284 319.667 281 316.667 449.547 316.667ZM272 262 281 244 290 262Z" fill="#FF0000"/><path d="M340 456.013 362 456.013 362 348 406 348 406 456.013 428 456.013 384 492Z" fill="#0070C0" fill-rule="evenodd"/><path d="M513.5 156.5 513.5 244.5" stroke="#000000" stroke-linejoin="round" stroke-miterlimit="10" stroke-dasharray="4 3" fill="none" fill-rule="evenodd"/><path d="M521 364 521 508" stroke="#FF0000" stroke-width="6" stroke-linecap="round" stroke-linejoin="round" stroke-miterlimit="10" stroke-dasharray="0 12" fill="none" fill-rule="evenodd"/></g></svg>